<svg width="54" height="49" viewBox="0 0 54 49" fill="none" xmlns="http://www.w3.org/2000/svg">
<path fill-rule="evenodd" clip-rule="evenodd" d="M1.37289 20.6982C3.01569 20.6982 4.34745 21.8518 4.34745 23.2748V44.3227C4.34745 46.9059 6.76512 49 9.74745 49H44.7102C47.6925 49 50.1102 46.9059 50.1102 44.3227V22.3829C50.1102 21.4525 50.981 20.6982 52.0551 20.6982C53.1292 20.6982 54 19.9441 54 19.0137V14.1807C54 12.468 52.9194 10.8922 51.1828 10.073L31.0381 0.569719C29.5088 -0.151711 27.6718 -0.190101 26.1041 0.466612L3.04887 10.1249C1.18446 10.9059 0 12.5417 0 14.3356V19.5091C0 20.1659 0.614659 20.6982 1.37289 20.6982ZM44.9619 44.8683C44.2668 44.8683 43.7034 44.3803 43.7034 43.7783V28.6809C43.7034 26.0977 41.2857 24.0036 38.3034 24.0036H16.3831C13.4007 24.0036 10.9831 26.0977 10.9831 28.6809V43.8774C10.9831 44.4247 10.4708 44.8683 9.83898 44.8683C9.20713 44.8683 8.69492 44.4247 8.69492 43.8774V18.9046C8.69492 18.412 8.23392 18.0127 7.66526 18.0127C7.09659 18.0127 6.6356 17.6135 6.6356 17.1208V15.3929C6.6356 14.3495 7.3504 13.4056 8.4553 12.9899L26.3792 6.24726C27.7929 5.71544 29.4017 5.73223 30.8002 6.29341L47.4234 12.9636C48.5037 13.3971 49.1949 14.3344 49.1949 15.3655V16.7245C49.1949 17.4359 48.529 18.0127 47.7076 18.0127C46.8863 18.0127 46.2203 18.5895 46.2203 19.3009V43.7783C46.2203 44.3803 45.6569 44.8683 44.9619 44.8683Z" fill="#FFB20F"/>
<path d="M12.96 31.9066V34.0326C12.96 34.5492 13.4435 34.9681 14.04 34.9681H20.52C21.1164 34.9681 21.6 34.5492 21.6 34.0326V32.1617C21.6 31.645 21.1164 31.2262 20.52 31.2262H13.7454C13.3116 31.2262 12.96 31.5308 12.96 31.9066Z" fill="#141313"/>
<path d="M12.96 18.81V20.936C12.96 21.4527 13.4435 21.8715 14.04 21.8715H18.36C18.9564 21.8715 19.44 21.4527 19.44 20.936V19.0651C19.44 18.5484 18.9564 18.1296 18.36 18.1296H13.7454C13.3116 18.1296 12.96 18.4342 12.96 18.81Z" fill="#FFB20F"/>
<path d="M20.52 18.81V20.936C20.52 21.4527 21.0035 21.8715 21.6 21.8715H25.92C26.5165 21.8715 27 21.4527 27 20.936V19.0651C27 18.5484 26.5165 18.1296 25.92 18.1296H21.3055C20.8717 18.1296 20.52 18.4342 20.52 18.81Z" fill="#FFB20F"/>
<path d="M28.0801 18.81V20.936C28.0801 21.4527 28.5636 21.8715 29.1601 21.8715H33.4801C34.0766 21.8715 34.5601 21.4527 34.5601 20.936V19.0651C34.5601 18.5484 34.0766 18.1296 33.4801 18.1296H28.8656C28.4317 18.1296 28.0801 18.4342 28.0801 18.81Z" fill="#FFB20F"/>
<path d="M35.6401 18.81V20.936C35.6401 21.4527 36.1237 21.8715 36.7201 21.8715H41.0401C41.6366 21.8715 42.1201 21.4527 42.1201 20.936V19.0651C42.1201 18.5484 41.6366 18.1296 41.0401 18.1296H36.4256C35.9918 18.1296 35.6401 18.4342 35.6401 18.81Z" fill="#FFB20F"/>
<path d="M12.96 36.5839V38.7099C12.96 39.2266 13.4435 39.6454 14.04 39.6454H20.52C21.1164 39.6454 21.6 39.2266 21.6 38.7099V36.839C21.6 36.3223 21.1164 35.9035 20.52 35.9035H13.7454C13.3116 35.9035 12.96 36.2081 12.96 36.5839Z" fill="#141313"/>
<path d="M12.96 41.2612V43.3872C12.96 43.9039 13.4435 44.3227 14.04 44.3227H20.52C21.1164 44.3227 21.6 43.9039 21.6 43.3872V41.5163C21.6 40.9996 21.1164 40.5808 20.52 40.5808H13.7454C13.3116 40.5808 12.96 40.8854 12.96 41.2612Z" fill="#141313"/>
<path d="M22.6802 41.2612V43.3872C22.6802 43.9039 23.1637 44.3227 23.7602 44.3227H30.2402C30.8367 44.3227 31.3202 43.9039 31.3202 43.3872V41.5163C31.3202 40.9996 30.8367 40.5808 30.2402 40.5808H23.4657C23.0318 40.5808 22.6802 40.8854 22.6802 41.2612Z" fill="#141313"/>
<path d="M32.3999 41.2612V43.3872C32.3999 43.9039 32.8834 44.3227 33.4799 44.3227H39.9599C40.5564 44.3227 41.0399 43.9039 41.0399 43.3872V41.5163C41.0399 40.9996 40.5564 40.5808 39.9599 40.5808H33.1854C32.7516 40.5808 32.3999 40.8854 32.3999 41.2612Z" fill="#141313"/>
<path d="M22.6802 36.5839V38.7099C22.6802 39.2266 23.1637 39.6454 23.7602 39.6454H30.2402C30.8367 39.6454 31.3202 39.2266 31.3202 38.7099V36.839C31.3202 36.3223 30.8367 35.9035 30.2402 35.9035H23.4657C23.0318 35.9035 22.6802 36.2081 22.6802 36.5839Z" fill="#141313"/>
</svg>
