<svg width="172" height="52" viewBox="0 0 172 52" fill="none" xmlns="http://www.w3.org/2000/svg">
<path fill-rule="evenodd" clip-rule="evenodd" d="M1.37289 20.6982C3.01569 20.6982 4.34745 21.8518 4.34745 23.2748V44.3227C4.34745 46.9059 6.76512 49 9.74745 49H44.7102C47.6925 49 50.1102 46.9059 50.1102 44.3227V22.3829C50.1102 21.4525 50.981 20.6982 52.0551 20.6982C53.1292 20.6982 54 19.9441 54 19.0137V14.1807C54 12.468 52.9194 10.8922 51.1828 10.073L31.0381 0.569719C29.5088 -0.151711 27.6718 -0.190101 26.1041 0.466612L3.04887 10.1249C1.18446 10.9059 0 12.5417 0 14.3356V19.5091C0 20.1659 0.614659 20.6982 1.37289 20.6982ZM44.9619 44.8683C44.2668 44.8683 43.7034 44.3803 43.7034 43.7783V28.6809C43.7034 26.0977 41.2857 24.0036 38.3034 24.0036H16.3831C13.4007 24.0036 10.9831 26.0977 10.9831 28.6809V43.8774C10.9831 44.4247 10.4708 44.8683 9.83898 44.8683C9.20713 44.8683 8.69492 44.4247 8.69492 43.8774V18.9046C8.69492 18.412 8.23392 18.0127 7.66526 18.0127C7.09659 18.0127 6.6356 17.6135 6.6356 17.1208V15.3929C6.6356 14.3495 7.3504 13.4056 8.4553 12.9899L26.3792 6.24726C27.7929 5.71544 29.4017 5.73223 30.8002 6.29341L47.4234 12.9636C48.5037 13.3971 49.1949 14.3344 49.1949 15.3655V16.7245C49.1949 17.4359 48.529 18.0127 47.7076 18.0127C46.8863 18.0127 46.2203 18.5895 46.2203 19.3009V43.7783C46.2203 44.3803 45.6569 44.8683 44.9619 44.8683Z" fill="#FFB20F"/>
<path d="M12.96 31.9066V34.0326C12.96 34.5492 13.4435 34.9681 14.04 34.9681H20.52C21.1164 34.9681 21.6 34.5492 21.6 34.0326V32.1617C21.6 31.645 21.1164 31.2262 20.52 31.2262H13.7454C13.3116 31.2262 12.96 31.5308 12.96 31.9066Z" fill="#141313"/>
<path d="M12.96 18.81V20.936C12.96 21.4527 13.4435 21.8715 14.04 21.8715H18.36C18.9564 21.8715 19.44 21.4527 19.44 20.936V19.0651C19.44 18.5484 18.9564 18.1296 18.36 18.1296H13.7454C13.3116 18.1296 12.96 18.4342 12.96 18.81Z" fill="#FFB20F"/>
<path d="M20.52 18.81V20.936C20.52 21.4527 21.0035 21.8715 21.6 21.8715H25.92C26.5165 21.8715 27 21.4527 27 20.936V19.0651C27 18.5484 26.5165 18.1296 25.92 18.1296H21.3055C20.8717 18.1296 20.52 18.4342 20.52 18.81Z" fill="#FFB20F"/>
<path d="M28.0801 18.81V20.936C28.0801 21.4527 28.5636 21.8715 29.1601 21.8715H33.4801C34.0766 21.8715 34.5601 21.4527 34.5601 20.936V19.0651C34.5601 18.5484 34.0766 18.1296 33.4801 18.1296H28.8656C28.4317 18.1296 28.0801 18.4342 28.0801 18.81Z" fill="#FFB20F"/>
<path d="M35.6401 18.81V20.936C35.6401 21.4527 36.1237 21.8715 36.7201 21.8715H41.0401C41.6366 21.8715 42.1201 21.4527 42.1201 20.936V19.0651C42.1201 18.5484 41.6366 18.1296 41.0401 18.1296H36.4256C35.9918 18.1296 35.6401 18.4342 35.6401 18.81Z" fill="#FFB20F"/>
<path d="M12.96 36.5839V38.7099C12.96 39.2266 13.4435 39.6454 14.04 39.6454H20.52C21.1164 39.6454 21.6 39.2266 21.6 38.7099V36.839C21.6 36.3223 21.1164 35.9035 20.52 35.9035H13.7454C13.3116 35.9035 12.96 36.2081 12.96 36.5839Z" fill="#141313"/>
<path d="M12.96 41.2612V43.3872C12.96 43.9039 13.4435 44.3227 14.04 44.3227H20.52C21.1164 44.3227 21.6 43.9039 21.6 43.3872V41.5163C21.6 40.9996 21.1164 40.5808 20.52 40.5808H13.7454C13.3116 40.5808 12.96 40.8854 12.96 41.2612Z" fill="#141313"/>
<path d="M22.6802 41.2612V43.3872C22.6802 43.9039 23.1637 44.3227 23.7602 44.3227H30.2402C30.8367 44.3227 31.3202 43.9039 31.3202 43.3872V41.5163C31.3202 40.9996 30.8367 40.5808 30.2402 40.5808H23.4657C23.0318 40.5808 22.6802 40.8854 22.6802 41.2612Z" fill="#141313"/>
<path d="M32.3999 41.2612V43.3872C32.3999 43.9039 32.8834 44.3227 33.4799 44.3227H39.9599C40.5564 44.3227 41.0399 43.9039 41.0399 43.3872V41.5163C41.0399 40.9996 40.5564 40.5808 39.9599 40.5808H33.1854C32.7516 40.5808 32.3999 40.8854 32.3999 41.2612Z" fill="#141313"/>
<path d="M22.6802 36.5839V38.7099C22.6802 39.2266 23.1637 39.6454 23.7602 39.6454H30.2402C30.8367 39.6454 31.3202 39.2266 31.3202 38.7099V36.839C31.3202 36.3223 30.8367 35.9035 30.2402 35.9035H23.4657C23.0318 35.9035 22.6802 36.2081 22.6802 36.5839Z" fill="#141313"/>
<path d="M60.126 33.3721C60.126 33.0615 59.9707 32.8184 59.6602 32.6426C59.3555 32.4609 58.8633 32.2998 58.1836 32.1592C55.9219 31.6846 54.791 30.7236 54.791 29.2764C54.791 28.4326 55.1396 27.7295 55.8369 27.167C56.54 26.5986 57.457 26.3145 58.5879 26.3145C59.7949 26.3145 60.7588 26.5986 61.4795 27.167C62.2061 27.7354 62.5693 28.4736 62.5693 29.3818H60.0293C60.0293 29.0186 59.9121 28.7197 59.6777 28.4854C59.4434 28.2451 59.0771 28.125 58.5791 28.125C58.1514 28.125 57.8203 28.2217 57.5859 28.415C57.3516 28.6084 57.2344 28.8545 57.2344 29.1533C57.2344 29.4346 57.3662 29.6631 57.6299 29.8389C57.8994 30.0088 58.3506 30.1582 58.9834 30.2871C59.6162 30.4102 60.1494 30.5508 60.583 30.709C61.9248 31.2012 62.5957 32.0537 62.5957 33.2666C62.5957 34.1338 62.2236 34.8369 61.4795 35.376C60.7354 35.9092 59.7744 36.1758 58.5967 36.1758C57.7998 36.1758 57.0908 36.0352 56.4697 35.7539C55.8545 35.4668 55.3711 35.0771 55.0195 34.585C54.668 34.0869 54.4922 33.5508 54.4922 32.9766H56.9004C56.9238 33.4277 57.0908 33.7734 57.4014 34.0137C57.7119 34.2539 58.1279 34.374 58.6494 34.374C59.1357 34.374 59.502 34.2832 59.748 34.1016C60 33.9141 60.126 33.6709 60.126 33.3721ZM67.2803 24.1523V26.4902H68.9062V28.3535H67.2803V33.0996C67.2803 33.4512 67.3477 33.7031 67.4824 33.8555C67.6172 34.0078 67.875 34.084 68.2559 34.084C68.5371 34.084 68.7861 34.0635 69.0029 34.0225V35.9473C68.5049 36.0996 67.9922 36.1758 67.4648 36.1758C65.6836 36.1758 64.7754 35.2764 64.7402 33.4775V28.3535H63.3516V26.4902H64.7402V24.1523H67.2803ZM69.6621 31.1572C69.6621 30.2139 69.8438 29.373 70.207 28.6348C70.5703 27.8965 71.0918 27.3252 71.7715 26.9209C72.457 26.5166 73.251 26.3145 74.1533 26.3145C75.4365 26.3145 76.4824 26.707 77.291 27.4922C78.1055 28.2773 78.5596 29.3438 78.6533 30.6914L78.6709 31.3418C78.6709 32.8008 78.2637 33.9727 77.4492 34.8574C76.6348 35.7363 75.542 36.1758 74.1709 36.1758C72.7998 36.1758 71.7041 35.7363 70.8838 34.8574C70.0693 33.9785 69.6621 32.7832 69.6621 31.2715V31.1572ZM72.2021 31.3418C72.2021 32.2441 72.3721 32.9355 72.7119 33.416C73.0518 33.8906 73.5381 34.1279 74.1709 34.1279C74.7861 34.1279 75.2666 33.8936 75.6123 33.4248C75.958 32.9502 76.1309 32.1943 76.1309 31.1572C76.1309 30.2725 75.958 29.5869 75.6123 29.1006C75.2666 28.6143 74.7803 28.3711 74.1533 28.3711C73.5322 28.3711 73.0518 28.6143 72.7119 29.1006C72.3721 29.5811 72.2021 30.3281 72.2021 31.3418ZM85.5791 28.8721C85.2334 28.8252 84.9287 28.8018 84.665 28.8018C83.7041 28.8018 83.0742 29.127 82.7754 29.7773V36H80.2354V26.4902H82.6348L82.7051 27.624C83.2148 26.751 83.9209 26.3145 84.8232 26.3145C85.1045 26.3145 85.3682 26.3525 85.6143 26.4287L85.5791 28.8721ZM91.0107 36.1758C89.6162 36.1758 88.4795 35.748 87.6006 34.8926C86.7275 34.0371 86.291 32.8975 86.291 31.4736V31.2275C86.291 30.2725 86.4756 29.4199 86.8447 28.6699C87.2139 27.9141 87.7354 27.334 88.4092 26.9297C89.0889 26.5195 89.8623 26.3145 90.7295 26.3145C92.0303 26.3145 93.0527 26.7246 93.7969 27.5449C94.5469 28.3652 94.9219 29.5283 94.9219 31.0342V32.0713H88.8662C88.9482 32.6924 89.1943 33.1904 89.6045 33.5654C90.0205 33.9404 90.5449 34.1279 91.1777 34.1279C92.1562 34.1279 92.9209 33.7734 93.4717 33.0645L94.7197 34.4619C94.3389 35.001 93.8232 35.4229 93.1729 35.7275C92.5225 36.0264 91.8018 36.1758 91.0107 36.1758ZM90.7207 28.3711C90.2168 28.3711 89.8066 28.541 89.4902 28.8809C89.1797 29.2207 88.9805 29.707 88.8926 30.3398H92.4258V30.1377C92.4141 29.5752 92.2617 29.1416 91.9688 28.8369C91.6758 28.5264 91.2598 28.3711 90.7207 28.3711ZM98.8506 27.5273C99.5244 26.7188 100.371 26.3145 101.391 26.3145C103.453 26.3145 104.499 27.5127 104.528 29.9092V36H101.988V29.9795C101.988 29.4346 101.871 29.0332 101.637 28.7754C101.402 28.5117 101.013 28.3799 100.468 28.3799C99.7236 28.3799 99.1846 28.667 98.8506 29.2412V36H96.3105V22.5H98.8506V27.5273ZM106.049 31.1572C106.049 30.2139 106.23 29.373 106.594 28.6348C106.957 27.8965 107.479 27.3252 108.158 26.9209C108.844 26.5166 109.638 26.3145 110.54 26.3145C111.823 26.3145 112.869 26.707 113.678 27.4922C114.492 28.2773 114.946 29.3438 115.04 30.6914L115.058 31.3418C115.058 32.8008 114.65 33.9727 113.836 34.8574C113.021 35.7363 111.929 36.1758 110.558 36.1758C109.187 36.1758 108.091 35.7363 107.271 34.8574C106.456 33.9785 106.049 32.7832 106.049 31.2715V31.1572ZM108.589 31.3418C108.589 32.2441 108.759 32.9355 109.099 33.416C109.438 33.8906 109.925 34.1279 110.558 34.1279C111.173 34.1279 111.653 33.8936 111.999 33.4248C112.345 32.9502 112.518 32.1943 112.518 31.1572C112.518 30.2725 112.345 29.5869 111.999 29.1006C111.653 28.6143 111.167 28.3711 110.54 28.3711C109.919 28.3711 109.438 28.6143 109.099 29.1006C108.759 29.5811 108.589 30.3281 108.589 31.3418ZM122.317 35.0332C121.69 35.7949 120.823 36.1758 119.716 36.1758C118.696 36.1758 117.917 35.8828 117.378 35.2969C116.845 34.7109 116.572 33.8525 116.561 32.7217V26.4902H119.101V32.6338C119.101 33.624 119.552 34.1191 120.454 34.1191C121.315 34.1191 121.907 33.8203 122.229 33.2227V26.4902H124.778V36H122.388L122.317 35.0332ZM131.845 33.3721C131.845 33.0615 131.689 32.8184 131.379 32.6426C131.074 32.4609 130.582 32.2998 129.902 32.1592C127.641 31.6846 126.51 30.7236 126.51 29.2764C126.51 28.4326 126.858 27.7295 127.556 27.167C128.259 26.5986 129.176 26.3145 130.307 26.3145C131.514 26.3145 132.478 26.5986 133.198 27.167C133.925 27.7354 134.288 28.4736 134.288 29.3818H131.748C131.748 29.0186 131.631 28.7197 131.396 28.4854C131.162 28.2451 130.796 28.125 130.298 28.125C129.87 28.125 129.539 28.2217 129.305 28.415C129.07 28.6084 128.953 28.8545 128.953 29.1533C128.953 29.4346 129.085 29.6631 129.349 29.8389C129.618 30.0088 130.069 30.1582 130.702 30.2871C131.335 30.4102 131.868 30.5508 132.302 30.709C133.644 31.2012 134.314 32.0537 134.314 33.2666C134.314 34.1338 133.942 34.8369 133.198 35.376C132.454 35.9092 131.493 36.1758 130.315 36.1758C129.519 36.1758 128.81 36.0352 128.188 35.7539C127.573 35.4668 127.09 35.0771 126.738 34.585C126.387 34.0869 126.211 33.5508 126.211 32.9766H128.619C128.643 33.4277 128.81 33.7734 129.12 34.0137C129.431 34.2539 129.847 34.374 130.368 34.374C130.854 34.374 131.221 34.2832 131.467 34.1016C131.719 33.9141 131.845 33.6709 131.845 33.3721ZM140.335 36.1758C138.94 36.1758 137.804 35.748 136.925 34.8926C136.052 34.0371 135.615 32.8975 135.615 31.4736V31.2275C135.615 30.2725 135.8 29.4199 136.169 28.6699C136.538 27.9141 137.06 27.334 137.733 26.9297C138.413 26.5195 139.187 26.3145 140.054 26.3145C141.354 26.3145 142.377 26.7246 143.121 27.5449C143.871 28.3652 144.246 29.5283 144.246 31.0342V32.0713H138.19C138.272 32.6924 138.519 33.1904 138.929 33.5654C139.345 33.9404 139.869 34.1279 140.502 34.1279C141.48 34.1279 142.245 33.7734 142.796 33.0645L144.044 34.4619C143.663 35.001 143.147 35.4229 142.497 35.7275C141.847 36.0264 141.126 36.1758 140.335 36.1758ZM140.045 28.3711C139.541 28.3711 139.131 28.541 138.814 28.8809C138.504 29.2207 138.305 29.707 138.217 30.3398H141.75V30.1377C141.738 29.5752 141.586 29.1416 141.293 28.8369C141 28.5264 140.584 28.3711 140.045 28.3711ZM145.828 34.752C145.828 34.3477 145.963 34.0195 146.232 33.7676C146.508 33.5156 146.851 33.3896 147.261 33.3896C147.677 33.3896 148.02 33.5156 148.289 33.7676C148.564 34.0195 148.702 34.3477 148.702 34.752C148.702 35.1504 148.567 35.4756 148.298 35.7275C148.028 35.9736 147.683 36.0967 147.261 36.0967C146.845 36.0967 146.502 35.9736 146.232 35.7275C145.963 35.4756 145.828 35.1504 145.828 34.752ZM153.272 26.4902L153.352 27.5889C154.031 26.7393 154.942 26.3145 156.085 26.3145C157.093 26.3145 157.843 26.6104 158.335 27.2021C158.827 27.7939 159.079 28.6787 159.091 29.8564V36H156.551V29.918C156.551 29.3789 156.434 28.9893 156.199 28.749C155.965 28.5029 155.575 28.3799 155.03 28.3799C154.315 28.3799 153.779 28.6846 153.422 29.2939V36H150.882V26.4902H153.272ZM160.655 31.1748C160.655 29.7158 161.001 28.541 161.692 27.6504C162.39 26.7598 163.327 26.3145 164.505 26.3145C165.548 26.3145 166.359 26.6719 166.939 27.3867L167.045 26.4902H169.348V35.6836C169.348 36.5156 169.157 37.2393 168.776 37.8545C168.401 38.4697 167.871 38.9385 167.186 39.2607C166.5 39.583 165.697 39.7441 164.777 39.7441C164.08 39.7441 163.4 39.6035 162.738 39.3223C162.076 39.0469 161.575 38.6895 161.235 38.25L162.36 36.7031C162.993 37.4121 163.761 37.7666 164.663 37.7666C165.337 37.7666 165.861 37.585 166.236 37.2217C166.611 36.8643 166.799 36.3545 166.799 35.6924V35.1826C166.213 35.8447 165.442 36.1758 164.487 36.1758C163.345 36.1758 162.419 35.7305 161.71 34.8398C161.007 33.9434 160.655 32.7568 160.655 31.2803V31.1748ZM163.195 31.3594C163.195 32.2207 163.368 32.8975 163.714 33.3896C164.06 33.876 164.534 34.1191 165.138 34.1191C165.911 34.1191 166.465 33.8291 166.799 33.249V29.25C166.459 28.6699 165.911 28.3799 165.155 28.3799C164.546 28.3799 164.065 28.6289 163.714 29.127C163.368 29.625 163.195 30.3691 163.195 31.3594Z" fill="#FFB20F"/>
<path d="M75.923 47.234C75.793 47.234 75.6673 47.1907 75.546 47.104C75.4247 47.026 75.364 46.8917 75.364 46.701C75.364 46.5103 75.4507 46.363 75.624 46.259C75.7973 46.1463 75.9577 46.09 76.105 46.09C76.2523 46.09 76.3737 46.1333 76.469 46.22C76.573 46.298 76.625 46.3977 76.625 46.519C76.625 46.9957 76.391 47.234 75.923 47.234ZM78.2335 47.234C78.1035 47.234 77.9779 47.1907 77.8565 47.104C77.7352 47.026 77.6745 46.8917 77.6745 46.701C77.6745 46.5103 77.7612 46.363 77.9345 46.259C78.1079 46.1463 78.2682 46.09 78.4155 46.09C78.5629 46.09 78.6842 46.1333 78.7795 46.22C78.8835 46.298 78.9355 46.3977 78.9355 46.519C78.9355 46.9957 78.7015 47.234 78.2335 47.234ZM80.5441 47.234C80.4141 47.234 80.2884 47.1907 80.1671 47.104C80.0458 47.026 79.9851 46.8917 79.9851 46.701C79.9851 46.5103 80.0718 46.363 80.2451 46.259C80.4184 46.1463 80.5788 46.09 80.7261 46.09C80.8734 46.09 80.9948 46.1333 81.0901 46.22C81.1941 46.298 81.2461 46.3977 81.2461 46.519C81.2461 46.9957 81.0121 47.234 80.5441 47.234ZM85.5846 47.065C85.2466 47.065 84.991 46.9957 84.8176 46.857C84.757 46.7963 84.7266 46.6447 84.7266 46.402C84.7266 46.1507 84.7353 45.817 84.7526 45.401C84.5273 45.9643 84.302 46.3847 84.0766 46.662C83.86 46.9307 83.5783 47.065 83.2316 47.065C82.885 47.065 82.5816 46.9047 82.3216 46.584C82.0616 46.2547 81.9316 45.7433 81.9316 45.05C81.9316 44.348 82.1266 43.7283 82.5166 43.191C82.9153 42.6537 83.4353 42.385 84.0766 42.385C84.354 42.385 84.666 42.567 85.0126 42.931C85.082 42.8357 85.2033 42.723 85.3766 42.593C85.5586 42.4543 85.7103 42.385 85.8316 42.385C85.9616 42.385 86.0266 42.5497 86.0266 42.879C86.0266 42.9657 86.0006 43.1347 85.9486 43.386C85.9053 43.6373 85.8533 43.8193 85.7926 43.932C85.7146 44.1313 85.6756 44.8377 85.6756 46.051C85.6756 46.285 85.7016 46.402 85.7536 46.402C85.901 46.3933 86.1046 46.2113 86.3646 45.856C86.6246 45.492 86.8803 45.0283 87.1316 44.465C87.3916 43.9017 87.5476 43.62 87.5996 43.62C87.6603 43.62 87.6906 43.6547 87.6906 43.724C87.6906 43.9667 87.565 44.3523 87.3136 44.881C86.629 46.337 86.0526 47.065 85.5846 47.065ZM83.9986 42.905C83.756 42.905 83.496 43.087 83.2186 43.451C82.95 43.8063 82.8156 44.2267 82.8156 44.712C82.8156 45.1973 82.885 45.596 83.0236 45.908C83.171 46.22 83.3616 46.376 83.5956 46.376C83.8816 46.376 84.302 45.661 84.8566 44.231C84.8653 44.1617 84.874 44.0447 84.8826 43.88C84.9 43.7067 84.913 43.5767 84.9216 43.49C84.8436 43.3513 84.705 43.2213 84.5056 43.1C84.315 42.97 84.146 42.905 83.9986 42.905ZM90.447 47.065C90.2564 47.065 90.0787 47.0433 89.914 47C89.758 46.948 89.6627 46.9003 89.628 46.857C89.5414 46.753 89.498 46.2157 89.498 45.245C89.498 44.2657 89.6064 42.9397 89.823 41.267C90.005 39.889 90.4297 39.2 91.097 39.2C91.253 39.2 91.3657 39.2867 91.435 39.46C91.5044 39.6247 91.539 39.785 91.539 39.941C91.539 41.0677 91.1967 42.3287 90.512 43.724C90.486 44.4433 90.473 45.0717 90.473 45.609C90.473 46.1377 90.5207 46.402 90.616 46.402C90.7634 46.3933 90.967 46.2113 91.227 45.856C91.487 45.492 91.7427 45.0283 91.994 44.465C92.254 43.9017 92.41 43.62 92.462 43.62C92.5227 43.62 92.553 43.6547 92.553 43.724C92.553 43.9667 92.4274 44.3523 92.176 44.881C91.4914 46.337 90.915 47.065 90.447 47.065ZM91.214 40.058C91.214 39.7807 91.1794 39.642 91.11 39.642C90.85 39.642 90.6594 40.721 90.538 42.879C90.9887 41.6917 91.214 40.7513 91.214 40.058ZM92.2515 40.643C92.2515 40.487 92.3338 40.3527 92.4985 40.24C92.6632 40.1273 92.8105 40.071 92.9405 40.071C93.1745 40.071 93.2915 40.2053 93.2915 40.474C93.2915 40.7427 93.2222 40.9767 93.0835 41.176C92.9448 41.3667 92.7498 41.462 92.4985 41.462C92.3338 41.462 92.2515 41.189 92.2515 40.643ZM92.6285 47.065C92.2905 47.065 92.0348 46.9957 91.8615 46.857C91.8008 46.7963 91.7705 46.5797 91.7705 46.207C91.7705 45.8343 91.7965 45.2147 91.8485 44.348C91.9092 43.4727 91.9612 43.0003 92.0045 42.931C92.0478 42.8617 92.1822 42.7317 92.4075 42.541C92.6328 42.3503 92.8062 42.255 92.9275 42.255C93.0575 42.255 93.1225 42.4197 93.1225 42.749C93.1225 42.8357 93.0965 43.0047 93.0445 43.256C93.0012 43.5073 92.9492 43.6893 92.8885 43.802C92.7758 44.088 92.7195 44.8377 92.7195 46.051C92.7195 46.285 92.7455 46.402 92.7975 46.402C92.9448 46.3933 93.1485 46.2113 93.4085 45.856C93.6685 45.492 93.9242 45.0283 94.1755 44.465C94.4355 43.9017 94.5915 43.62 94.6435 43.62C94.7042 43.62 94.7345 43.6547 94.7345 43.724C94.7345 43.9667 94.6088 44.3523 94.3575 44.881C93.6728 46.337 93.0965 47.065 92.6285 47.065ZM96.955 44.881C96.2703 46.337 95.6896 47.065 95.213 47.065C94.745 47.065 94.4676 47.0087 94.381 46.896C94.303 46.7833 94.264 46.4107 94.264 45.778C94.264 45.1453 94.3246 44.231 94.446 43.035C94.0126 42.9483 93.783 42.7707 93.757 42.502C93.757 42.3633 93.848 42.294 94.03 42.294C94.212 42.294 94.3723 42.3287 94.511 42.398C94.589 41.774 94.68 41.1413 94.784 40.5C94.81 40.3353 94.8923 40.1793 95.031 40.032C95.1696 39.8847 95.304 39.811 95.434 39.811C95.5466 39.811 95.603 39.9887 95.603 40.344C95.603 40.5087 95.5423 41.267 95.421 42.619C95.655 42.5757 95.9106 42.489 96.188 42.359C96.474 42.229 96.643 42.164 96.695 42.164C96.851 42.164 96.929 42.2117 96.929 42.307C96.9376 42.3937 96.7773 42.515 96.448 42.671C96.1186 42.8183 95.7633 42.931 95.382 43.009C95.278 44.2743 95.226 45.232 95.226 45.882C95.226 46.2287 95.278 46.402 95.382 46.402C95.538 46.3933 95.746 46.2113 96.006 45.856C96.266 45.5007 96.5216 45.0413 96.773 44.478C97.033 43.906 97.189 43.62 97.241 43.62C97.3016 43.62 97.332 43.6547 97.332 43.724C97.332 43.9667 97.2063 44.3523 96.955 44.881ZM99.5702 44.881C98.8855 46.337 98.3049 47.065 97.8282 47.065C97.3602 47.065 97.0829 47.0087 96.9962 46.896C96.9182 46.7833 96.8792 46.4107 96.8792 45.778C96.8792 45.1453 96.9399 44.231 97.0612 43.035C96.6279 42.9483 96.3982 42.7707 96.3722 42.502C96.3722 42.3633 96.4632 42.294 96.6452 42.294C96.8272 42.294 96.9875 42.3287 97.1262 42.398C97.2042 41.774 97.2952 41.1413 97.3992 40.5C97.4252 40.3353 97.5075 40.1793 97.6462 40.032C97.7849 39.8847 97.9192 39.811 98.0492 39.811C98.1619 39.811 98.2182 39.9887 98.2182 40.344C98.2182 40.5087 98.1575 41.267 98.0362 42.619C98.2702 42.5757 98.5259 42.489 98.8032 42.359C99.0892 42.229 99.2582 42.164 99.3102 42.164C99.4662 42.164 99.5442 42.2117 99.5442 42.307C99.5529 42.3937 99.3925 42.515 99.0632 42.671C98.7339 42.8183 98.3785 42.931 97.9972 43.009C97.8932 44.2743 97.8412 45.232 97.8412 45.882C97.8412 46.2287 97.8932 46.402 97.9972 46.402C98.1532 46.3933 98.3612 46.2113 98.6212 45.856C98.8812 45.5007 99.1369 45.0413 99.3882 44.478C99.6482 43.906 99.8042 43.62 99.8562 43.62C99.9169 43.62 99.9472 43.6547 99.9472 43.724C99.9472 43.9667 99.8215 44.3523 99.5702 44.881ZM100.222 47.065C100.032 47.065 99.8541 47.0433 99.6894 47C99.5334 46.948 99.4381 46.9003 99.4034 46.857C99.3168 46.753 99.2734 46.2157 99.2734 45.245C99.2734 44.2657 99.3818 42.9397 99.5984 41.267C99.7804 39.889 100.205 39.2 100.872 39.2C101.028 39.2 101.141 39.2867 101.21 39.46C101.28 39.6247 101.314 39.785 101.314 39.941C101.314 41.0677 100.972 42.3287 100.287 43.724C100.261 44.4433 100.248 45.0717 100.248 45.609C100.248 46.1377 100.296 46.402 100.391 46.402C100.539 46.3933 100.742 46.2113 101.002 45.856C101.262 45.492 101.518 45.0283 101.769 44.465C102.029 43.9017 102.185 43.62 102.237 43.62C102.298 43.62 102.328 43.6547 102.328 43.724C102.328 43.9667 102.203 44.3523 101.951 44.881C101.267 46.337 100.69 47.065 100.222 47.065ZM100.989 40.058C100.989 39.7807 100.955 39.642 100.885 39.642C100.625 39.642 100.435 40.721 100.313 42.879C100.764 41.6917 100.989 40.7513 100.989 40.058ZM103.132 47.065C102.647 47.065 102.261 46.883 101.975 46.519C101.689 46.1463 101.546 45.726 101.546 45.258C101.546 44.3133 101.745 43.5983 102.144 43.113C102.543 42.6277 103.058 42.385 103.691 42.385C103.986 42.385 104.228 42.4673 104.419 42.632C104.61 42.788 104.705 43.0047 104.705 43.282C104.705 43.802 104.484 44.2397 104.042 44.595C103.609 44.9417 103.076 45.1237 102.443 45.141C102.478 45.479 102.59 45.7737 102.781 46.025C102.98 46.2677 103.21 46.389 103.47 46.389C103.73 46.389 103.964 46.3283 104.172 46.207C104.38 46.0857 104.571 45.9123 104.744 45.687C105.108 45.2103 105.42 44.6687 105.68 44.062C105.749 43.906 105.801 43.7933 105.836 43.724C105.879 43.6547 105.923 43.62 105.966 43.62C106.018 43.62 106.044 43.6547 106.044 43.724C106.044 44.1573 105.78 44.8073 105.251 45.674C104.679 46.6013 103.973 47.065 103.132 47.065ZM102.443 44.829C102.954 44.7423 103.327 44.5777 103.561 44.335C103.804 44.0923 103.925 43.776 103.925 43.386C103.925 42.996 103.799 42.801 103.548 42.801C103.245 42.801 102.989 43.0133 102.781 43.438C102.573 43.854 102.46 44.3177 102.443 44.829ZM109.023 46.298L109.036 46.701C109.036 46.9437 108.967 47.065 108.828 47.065C108.62 47.065 108.421 47.039 108.23 46.987C108.04 46.9263 107.944 46.8483 107.944 46.753C107.944 46.649 107.966 46.3067 108.009 45.726C108.061 45.1367 108.087 44.6947 108.087 44.4V43.646C108.087 41.4273 108.482 40.0147 109.27 39.408C109.452 39.2693 109.639 39.2 109.829 39.2C109.916 39.2 110.003 39.2953 110.089 39.486C110.176 39.6767 110.219 39.9237 110.219 40.227C110.219 40.9723 110.094 41.67 109.842 42.32C109.591 42.97 109.335 43.4683 109.075 43.815C109.067 44.0317 109.062 44.3697 109.062 44.829C109.097 44.777 109.279 44.4823 109.608 43.945C109.938 43.4077 110.215 43.0133 110.44 42.762C110.674 42.5107 110.882 42.385 111.064 42.385C111.246 42.385 111.407 42.4457 111.545 42.567C111.693 42.6883 111.766 42.84 111.766 43.022C111.766 43.4033 111.723 43.9667 111.636 44.712C111.558 45.4487 111.519 45.9167 111.519 46.116C111.519 46.3067 111.545 46.402 111.597 46.402C111.745 46.3933 111.948 46.2113 112.208 45.856C112.468 45.492 112.724 45.0283 112.975 44.465C113.235 43.9017 113.391 43.62 113.443 43.62C113.504 43.62 113.534 43.6547 113.534 43.724C113.534 43.9667 113.409 44.3523 113.157 44.881C112.473 46.337 111.896 47.065 111.428 47.065C111.09 47.065 110.835 46.9957 110.661 46.857C110.601 46.7963 110.57 46.6403 110.57 46.389C110.57 46.129 110.592 45.713 110.635 45.141C110.687 44.5603 110.713 44.127 110.713 43.841C110.713 43.555 110.661 43.412 110.557 43.412C110.462 43.412 110.202 43.711 109.777 44.309C109.353 44.8983 109.127 45.2753 109.101 45.44C109.049 45.7433 109.023 46.0293 109.023 46.298ZM109.868 40.513C109.868 40.149 109.821 39.967 109.725 39.967C109.569 39.967 109.418 40.448 109.27 41.41C109.192 41.9213 109.136 42.515 109.101 43.191C109.613 42.125 109.868 41.2323 109.868 40.513ZM114.355 47.065C113.869 47.065 113.484 46.883 113.198 46.519C112.912 46.1463 112.769 45.726 112.769 45.258C112.769 44.3133 112.968 43.5983 113.367 43.113C113.765 42.6277 114.281 42.385 114.914 42.385C115.208 42.385 115.451 42.4673 115.642 42.632C115.832 42.788 115.928 43.0047 115.928 43.282C115.928 43.802 115.707 44.2397 115.265 44.595C114.831 44.9417 114.298 45.1237 113.666 45.141C113.7 45.479 113.813 45.7737 114.004 46.025C114.203 46.2677 114.433 46.389 114.693 46.389C114.953 46.389 115.187 46.3283 115.395 46.207C115.603 46.0857 115.793 45.9123 115.967 45.687C116.331 45.2103 116.643 44.6687 116.903 44.062C116.972 43.906 117.024 43.7933 117.059 43.724C117.102 43.6547 117.145 43.62 117.189 43.62C117.241 43.62 117.267 43.6547 117.267 43.724C117.267 44.1573 117.002 44.8073 116.474 45.674C115.902 46.6013 115.195 47.065 114.355 47.065ZM113.666 44.829C114.177 44.7423 114.55 44.5777 114.784 44.335C115.026 44.0923 115.148 43.776 115.148 43.386C115.148 42.996 115.022 42.801 114.771 42.801C114.467 42.801 114.212 43.0133 114.004 43.438C113.796 43.854 113.683 44.3177 113.666 44.829ZM117.708 43.607L118.423 43.529C118.492 43.529 118.553 43.568 118.605 43.646C118.657 43.724 118.683 43.8063 118.683 43.893C118.683 43.9797 118.653 44.2743 118.592 44.777C118.54 45.2797 118.514 45.6783 118.514 45.973C118.514 46.259 118.54 46.402 118.592 46.402C118.739 46.3933 118.943 46.2113 119.203 45.856C119.463 45.492 119.719 45.0283 119.97 44.465C120.23 43.9017 120.386 43.62 120.438 43.62C120.499 43.62 120.529 43.6547 120.529 43.724C120.529 43.9667 120.403 44.3523 120.152 44.881C119.467 46.337 118.891 47.065 118.423 47.065C118.085 47.065 117.829 46.9957 117.656 46.857C117.595 46.7963 117.565 46.4193 117.565 45.726C117.565 45.0327 117.639 44.439 117.786 43.945C117.283 43.945 116.932 43.7847 116.733 43.464C116.629 43.2993 116.577 43.113 116.577 42.905C116.577 42.697 116.62 42.515 116.707 42.359C116.794 42.203 116.915 42.125 117.071 42.125C117.236 42.125 117.383 42.2117 117.513 42.385C117.652 42.5497 117.721 42.736 117.721 42.944C117.721 43.152 117.66 43.36 117.539 43.568C117.574 43.594 117.63 43.607 117.708 43.607ZM121.477 47.065C120.991 47.065 120.606 46.883 120.32 46.519C120.034 46.1463 119.891 45.726 119.891 45.258C119.891 44.3133 120.09 43.5983 120.489 43.113C120.887 42.6277 121.403 42.385 122.036 42.385C122.33 42.385 122.573 42.4673 122.764 42.632C122.954 42.788 123.05 43.0047 123.05 43.282C123.05 43.802 122.829 44.2397 122.387 44.595C121.953 44.9417 121.42 45.1237 120.788 45.141C120.822 45.479 120.935 45.7737 121.126 46.025C121.325 46.2677 121.555 46.389 121.815 46.389C122.075 46.389 122.309 46.3283 122.517 46.207C122.725 46.0857 122.915 45.9123 123.089 45.687C123.453 45.2103 123.765 44.6687 124.025 44.062C124.094 43.906 124.146 43.7933 124.181 43.724C124.224 43.6547 124.267 43.62 124.311 43.62C124.363 43.62 124.389 43.6547 124.389 43.724C124.389 44.1573 124.124 44.8073 123.596 45.674C123.024 46.6013 122.317 47.065 121.477 47.065ZM120.788 44.829C121.299 44.7423 121.672 44.5777 121.906 44.335C122.148 44.0923 122.27 43.776 122.27 43.386C122.27 42.996 122.144 42.801 121.893 42.801C121.589 42.801 121.334 43.0133 121.126 43.438C120.918 43.854 120.805 44.3177 120.788 44.829ZM129.942 47.065C129.604 47.065 129.348 46.9957 129.175 46.857C129.114 46.7963 129.084 46.6447 129.084 46.402C129.084 46.1507 129.093 45.817 129.11 45.401C128.885 45.9643 128.659 46.3847 128.434 46.662C128.217 46.9307 127.936 47.065 127.589 47.065C127.242 47.065 126.939 46.9047 126.679 46.584C126.419 46.2547 126.289 45.7433 126.289 45.05C126.289 44.348 126.484 43.7283 126.874 43.191C127.273 42.6537 127.793 42.385 128.434 42.385C128.711 42.385 129.023 42.567 129.37 42.931C129.439 42.8357 129.561 42.723 129.734 42.593C129.916 42.4543 130.068 42.385 130.189 42.385C130.319 42.385 130.384 42.5497 130.384 42.879C130.384 42.9657 130.358 43.1347 130.306 43.386C130.263 43.6373 130.211 43.8193 130.15 43.932C130.072 44.1313 130.033 44.8377 130.033 46.051C130.033 46.285 130.059 46.402 130.111 46.402C130.258 46.3933 130.462 46.2113 130.722 45.856C130.982 45.492 131.238 45.0283 131.489 44.465C131.749 43.9017 131.905 43.62 131.957 43.62C132.018 43.62 132.048 43.6547 132.048 43.724C132.048 43.9667 131.922 44.3523 131.671 44.881C130.986 46.337 130.41 47.065 129.942 47.065ZM128.356 42.905C128.113 42.905 127.853 43.087 127.576 43.451C127.307 43.8063 127.173 44.2267 127.173 44.712C127.173 45.1973 127.242 45.596 127.381 45.908C127.528 46.22 127.719 46.376 127.953 46.376C128.239 46.376 128.659 45.661 129.214 44.231C129.223 44.1617 129.231 44.0447 129.24 43.88C129.257 43.7067 129.27 43.5767 129.279 43.49C129.201 43.3513 129.062 43.2213 128.863 43.1C128.672 42.97 128.503 42.905 128.356 42.905ZM134.804 47.065C134.614 47.065 134.436 47.0433 134.271 47C134.115 46.948 134.02 46.9003 133.985 46.857C133.899 46.753 133.855 46.2157 133.855 45.245C133.855 44.2657 133.964 42.9397 134.18 41.267C134.362 39.889 134.787 39.2 135.454 39.2C135.61 39.2 135.723 39.2867 135.792 39.46C135.862 39.6247 135.896 39.785 135.896 39.941C135.896 41.0677 135.554 42.3287 134.869 43.724C134.843 44.4433 134.83 45.0717 134.83 45.609C134.83 46.1377 134.878 46.402 134.973 46.402C135.121 46.3933 135.324 46.2113 135.584 45.856C135.844 45.492 136.1 45.0283 136.351 44.465C136.611 43.9017 136.767 43.62 136.819 43.62C136.88 43.62 136.91 43.6547 136.91 43.724C136.91 43.9667 136.785 44.3523 136.533 44.881C135.849 46.337 135.272 47.065 134.804 47.065ZM135.571 40.058C135.571 39.7807 135.537 39.642 135.467 39.642C135.207 39.642 135.017 40.721 134.895 42.879C135.346 41.6917 135.571 40.7513 135.571 40.058ZM136.609 40.643C136.609 40.487 136.691 40.3527 136.856 40.24C137.021 40.1273 137.168 40.071 137.298 40.071C137.532 40.071 137.649 40.2053 137.649 40.474C137.649 40.7427 137.58 40.9767 137.441 41.176C137.302 41.3667 137.107 41.462 136.856 41.462C136.691 41.462 136.609 41.189 136.609 40.643ZM136.986 47.065C136.648 47.065 136.392 46.9957 136.219 46.857C136.158 46.7963 136.128 46.5797 136.128 46.207C136.128 45.8343 136.154 45.2147 136.206 44.348C136.267 43.4727 136.319 43.0003 136.362 42.931C136.405 42.8617 136.54 42.7317 136.765 42.541C136.99 42.3503 137.164 42.255 137.285 42.255C137.415 42.255 137.48 42.4197 137.48 42.749C137.48 42.8357 137.454 43.0047 137.402 43.256C137.359 43.5073 137.307 43.6893 137.246 43.802C137.133 44.088 137.077 44.8377 137.077 46.051C137.077 46.285 137.103 46.402 137.155 46.402C137.302 46.3933 137.506 46.2113 137.766 45.856C138.026 45.492 138.282 45.0283 138.533 44.465C138.793 43.9017 138.949 43.62 139.001 43.62C139.062 43.62 139.092 43.6547 139.092 43.724C139.092 43.9667 138.966 44.3523 138.715 44.881C138.03 46.337 137.454 47.065 136.986 47.065ZM141.312 44.881C140.628 46.337 140.047 47.065 139.57 47.065C139.102 47.065 138.825 47.0087 138.738 46.896C138.66 46.7833 138.621 46.4107 138.621 45.778C138.621 45.1453 138.682 44.231 138.803 43.035C138.37 42.9483 138.14 42.7707 138.114 42.502C138.114 42.3633 138.205 42.294 138.387 42.294C138.569 42.294 138.73 42.3287 138.868 42.398C138.946 41.774 139.037 41.1413 139.141 40.5C139.167 40.3353 139.25 40.1793 139.388 40.032C139.527 39.8847 139.661 39.811 139.791 39.811C139.904 39.811 139.96 39.9887 139.96 40.344C139.96 40.5087 139.9 41.267 139.778 42.619C140.012 42.5757 140.268 42.489 140.545 42.359C140.831 42.229 141 42.164 141.052 42.164C141.208 42.164 141.286 42.2117 141.286 42.307C141.295 42.3937 141.135 42.515 140.805 42.671C140.476 42.8183 140.121 42.931 139.739 43.009C139.635 44.2743 139.583 45.232 139.583 45.882C139.583 46.2287 139.635 46.402 139.739 46.402C139.895 46.3933 140.103 46.2113 140.363 45.856C140.623 45.5007 140.879 45.0413 141.13 44.478C141.39 43.906 141.546 43.62 141.598 43.62C141.659 43.62 141.689 43.6547 141.689 43.724C141.689 43.9667 141.564 44.3523 141.312 44.881ZM143.928 44.881C143.243 46.337 142.662 47.065 142.186 47.065C141.718 47.065 141.44 47.0087 141.354 46.896C141.276 46.7833 141.237 46.4107 141.237 45.778C141.237 45.1453 141.297 44.231 141.419 43.035C140.985 42.9483 140.756 42.7707 140.73 42.502C140.73 42.3633 140.821 42.294 141.003 42.294C141.185 42.294 141.345 42.3287 141.484 42.398C141.562 41.774 141.653 41.1413 141.757 40.5C141.783 40.3353 141.865 40.1793 142.004 40.032C142.142 39.8847 142.277 39.811 142.407 39.811C142.519 39.811 142.576 39.9887 142.576 40.344C142.576 40.5087 142.515 41.267 142.394 42.619C142.628 42.5757 142.883 42.489 143.161 42.359C143.447 42.229 143.616 42.164 143.668 42.164C143.824 42.164 143.902 42.2117 143.902 42.307C143.91 42.3937 143.75 42.515 143.421 42.671C143.091 42.8183 142.736 42.931 142.355 43.009C142.251 44.2743 142.199 45.232 142.199 45.882C142.199 46.2287 142.251 46.402 142.355 46.402C142.511 46.3933 142.719 46.2113 142.979 45.856C143.239 45.5007 143.494 45.0413 143.746 44.478C144.006 43.906 144.162 43.62 144.214 43.62C144.274 43.62 144.305 43.6547 144.305 43.724C144.305 43.9667 144.179 44.3523 143.928 44.881ZM144.58 47.065C144.389 47.065 144.212 47.0433 144.047 47C143.891 46.948 143.796 46.9003 143.761 46.857C143.674 46.753 143.631 46.2157 143.631 45.245C143.631 44.2657 143.739 42.9397 143.956 41.267C144.138 39.889 144.563 39.2 145.23 39.2C145.386 39.2 145.499 39.2867 145.568 39.46C145.637 39.6247 145.672 39.785 145.672 39.941C145.672 41.0677 145.33 42.3287 144.645 43.724C144.619 44.4433 144.606 45.0717 144.606 45.609C144.606 46.1377 144.654 46.402 144.749 46.402C144.896 46.3933 145.1 46.2113 145.36 45.856C145.62 45.492 145.876 45.0283 146.127 44.465C146.387 43.9017 146.543 43.62 146.595 43.62C146.656 43.62 146.686 43.6547 146.686 43.724C146.686 43.9667 146.56 44.3523 146.309 44.881C145.624 46.337 145.048 47.065 144.58 47.065ZM145.347 40.058C145.347 39.7807 145.312 39.642 145.243 39.642C144.983 39.642 144.792 40.721 144.671 42.879C145.122 41.6917 145.347 40.7513 145.347 40.058ZM147.489 47.065C147.004 47.065 146.618 46.883 146.332 46.519C146.046 46.1463 145.903 45.726 145.903 45.258C145.903 44.3133 146.103 43.5983 146.501 43.113C146.9 42.6277 147.416 42.385 148.048 42.385C148.343 42.385 148.586 42.4673 148.776 42.632C148.967 42.788 149.062 43.0047 149.062 43.282C149.062 43.802 148.841 44.2397 148.399 44.595C147.966 44.9417 147.433 45.1237 146.8 45.141C146.835 45.479 146.948 45.7737 147.138 46.025C147.338 46.2677 147.567 46.389 147.827 46.389C148.087 46.389 148.321 46.3283 148.529 46.207C148.737 46.0857 148.928 45.9123 149.101 45.687C149.465 45.2103 149.777 44.6687 150.037 44.062C150.107 43.906 150.159 43.7933 150.193 43.724C150.237 43.6547 150.28 43.62 150.323 43.62C150.375 43.62 150.401 43.6547 150.401 43.724C150.401 44.1573 150.137 44.8073 149.608 45.674C149.036 46.6013 148.33 47.065 147.489 47.065ZM146.8 44.829C147.312 44.7423 147.684 44.5777 147.918 44.335C148.161 44.0923 148.282 43.776 148.282 43.386C148.282 42.996 148.157 42.801 147.905 42.801C147.602 42.801 147.346 43.0133 147.138 43.438C146.93 43.854 146.818 44.3177 146.8 44.829ZM155.214 44.881C154.529 46.337 153.948 47.065 153.472 47.065C153.004 47.065 152.726 47.0087 152.64 46.896C152.562 46.7833 152.523 46.4107 152.523 45.778C152.523 45.1453 152.583 44.231 152.705 43.035C152.271 42.9483 152.042 42.7707 152.016 42.502C152.016 42.3633 152.107 42.294 152.289 42.294C152.471 42.294 152.631 42.3287 152.77 42.398C152.848 41.774 152.939 41.1413 153.043 40.5C153.069 40.3353 153.151 40.1793 153.29 40.032C153.428 39.8847 153.563 39.811 153.693 39.811C153.805 39.811 153.862 39.9887 153.862 40.344C153.862 40.5087 153.801 41.267 153.68 42.619C153.914 42.5757 154.169 42.489 154.447 42.359C154.733 42.229 154.902 42.164 154.954 42.164C155.11 42.164 155.188 42.2117 155.188 42.307C155.196 42.3937 155.036 42.515 154.707 42.671C154.377 42.8183 154.022 42.931 153.641 43.009C153.537 44.2743 153.485 45.232 153.485 45.882C153.485 46.2287 153.537 46.402 153.641 46.402C153.797 46.3933 154.005 46.2113 154.265 45.856C154.525 45.5007 154.78 45.0413 155.032 44.478C155.292 43.906 155.448 43.62 155.5 43.62C155.56 43.62 155.591 43.6547 155.591 43.724C155.591 43.9667 155.465 44.3523 155.214 44.881ZM155.996 46.298L156.009 46.701C156.009 46.9437 155.94 47.065 155.801 47.065C155.593 47.065 155.394 47.039 155.203 46.987C155.012 46.9263 154.917 46.8483 154.917 46.753C154.917 46.649 154.939 46.3067 154.982 45.726C155.034 45.1367 155.06 44.6947 155.06 44.4V43.646C155.06 41.4273 155.454 40.0147 156.243 39.408C156.425 39.2693 156.611 39.2 156.802 39.2C156.889 39.2 156.975 39.2953 157.062 39.486C157.149 39.6767 157.192 39.9237 157.192 40.227C157.192 40.9723 157.066 41.67 156.815 42.32C156.564 42.97 156.308 43.4683 156.048 43.815C156.039 44.0317 156.035 44.3697 156.035 44.829C156.07 44.777 156.252 44.4823 156.581 43.945C156.91 43.4077 157.188 43.0133 157.413 42.762C157.647 42.5107 157.855 42.385 158.037 42.385C158.219 42.385 158.379 42.4457 158.518 42.567C158.665 42.6883 158.739 42.84 158.739 43.022C158.739 43.4033 158.696 43.9667 158.609 44.712C158.531 45.4487 158.492 45.9167 158.492 46.116C158.492 46.3067 158.518 46.402 158.57 46.402C158.717 46.3933 158.921 46.2113 159.181 45.856C159.441 45.492 159.697 45.0283 159.948 44.465C160.208 43.9017 160.364 43.62 160.416 43.62C160.477 43.62 160.507 43.6547 160.507 43.724C160.507 43.9667 160.381 44.3523 160.13 44.881C159.445 46.337 158.869 47.065 158.401 47.065C158.063 47.065 157.807 46.9957 157.634 46.857C157.573 46.7963 157.543 46.6403 157.543 46.389C157.543 46.129 157.565 45.713 157.608 45.141C157.66 44.5603 157.686 44.127 157.686 43.841C157.686 43.555 157.634 43.412 157.53 43.412C157.435 43.412 157.175 43.711 156.75 44.309C156.325 44.8983 156.1 45.2753 156.074 45.44C156.022 45.7433 155.996 46.0293 155.996 46.298ZM156.841 40.513C156.841 40.149 156.793 39.967 156.698 39.967C156.542 39.967 156.39 40.448 156.243 41.41C156.165 41.9213 156.109 42.515 156.074 43.191C156.585 42.125 156.841 41.2323 156.841 40.513ZM161.327 47.065C160.842 47.065 160.456 46.883 160.17 46.519C159.884 46.1463 159.741 45.726 159.741 45.258C159.741 44.3133 159.941 43.5983 160.339 43.113C160.738 42.6277 161.254 42.385 161.886 42.385C162.181 42.385 162.424 42.4673 162.614 42.632C162.805 42.788 162.9 43.0047 162.9 43.282C162.9 43.802 162.679 44.2397 162.237 44.595C161.804 44.9417 161.271 45.1237 160.638 45.141C160.673 45.479 160.786 45.7737 160.976 46.025C161.176 46.2677 161.405 46.389 161.665 46.389C161.925 46.389 162.159 46.3283 162.367 46.207C162.575 46.0857 162.766 45.9123 162.939 45.687C163.303 45.2103 163.615 44.6687 163.875 44.062C163.945 43.906 163.997 43.7933 164.031 43.724C164.075 43.6547 164.118 43.62 164.161 43.62C164.213 43.62 164.239 43.6547 164.239 43.724C164.239 44.1573 163.975 44.8073 163.446 45.674C162.874 46.6013 162.168 47.065 161.327 47.065ZM160.638 44.829C161.15 44.7423 161.522 44.5777 161.756 44.335C161.999 44.0923 162.12 43.776 162.12 43.386C162.12 42.996 161.995 42.801 161.743 42.801C161.44 42.801 161.184 43.0133 160.976 43.438C160.768 43.854 160.656 44.3177 160.638 44.829ZM164.681 43.607L165.396 43.529C165.465 43.529 165.526 43.568 165.578 43.646C165.63 43.724 165.656 43.8063 165.656 43.893C165.656 43.9797 165.625 44.2743 165.565 44.777C165.513 45.2797 165.487 45.6783 165.487 45.973C165.487 46.259 165.513 46.402 165.565 46.402C165.712 46.3933 165.916 46.2113 166.176 45.856C166.436 45.492 166.691 45.0283 166.943 44.465C167.203 43.9017 167.359 43.62 167.411 43.62C167.471 43.62 167.502 43.6547 167.502 43.724C167.502 43.9667 167.376 44.3523 167.125 44.881C166.44 46.337 165.864 47.065 165.396 47.065C165.058 47.065 164.802 46.9957 164.629 46.857C164.568 46.7963 164.538 46.4193 164.538 45.726C164.538 45.0327 164.611 44.439 164.759 43.945C164.256 43.945 163.905 43.7847 163.706 43.464C163.602 43.2993 163.55 43.113 163.55 42.905C163.55 42.697 163.593 42.515 163.68 42.359C163.766 42.203 163.888 42.125 164.044 42.125C164.208 42.125 164.356 42.2117 164.486 42.385C164.624 42.5497 164.694 42.736 164.694 42.944C164.694 43.152 164.633 43.36 164.512 43.568C164.546 43.594 164.603 43.607 164.681 43.607ZM168.449 47.065C167.964 47.065 167.578 46.883 167.292 46.519C167.006 46.1463 166.863 45.726 166.863 45.258C166.863 44.3133 167.063 43.5983 167.461 43.113C167.86 42.6277 168.376 42.385 169.008 42.385C169.303 42.385 169.546 42.4673 169.736 42.632C169.927 42.788 170.022 43.0047 170.022 43.282C170.022 43.802 169.801 44.2397 169.359 44.595C168.926 44.9417 168.393 45.1237 167.76 45.141C167.795 45.479 167.908 45.7737 168.098 46.025C168.298 46.2677 168.527 46.389 168.787 46.389C169.047 46.389 169.281 46.3283 169.489 46.207C169.697 46.0857 169.888 45.9123 170.061 45.687C170.425 45.2103 170.737 44.6687 170.997 44.062C171.067 43.906 171.119 43.7933 171.153 43.724C171.197 43.6547 171.24 43.62 171.283 43.62C171.335 43.62 171.361 43.6547 171.361 43.724C171.361 44.1573 171.097 44.8073 170.568 45.674C169.996 46.6013 169.29 47.065 168.449 47.065ZM167.76 44.829C168.272 44.7423 168.644 44.5777 168.878 44.335C169.121 44.0923 169.242 43.776 169.242 43.386C169.242 42.996 169.117 42.801 168.865 42.801C168.562 42.801 168.306 43.0133 168.098 43.438C167.89 43.854 167.778 44.3177 167.76 44.829Z" fill="#FFB20F"/>
</svg>
