<svg height="496pt" viewBox="0 -32 496.004 496" width="496pt" xmlns="http://www.w3.org/2000/svg"><path d="m344.003906 304.003906h-8v-8c0-4.425781-3.585937-8-8-8h-80v16h72v8c0 4.421875 3.582032 8 8 8h8v48h-8c-4.417968 0-8 3.574219-8 8v8h-72v16h80c4.414063 0 8-3.578125 8-8v-8h8c4.414063 0 8-3.578125 8-8v-64c0-4.425781-3.585937-8-8-8zm0 0"/><path d="m80.003906 296.003906v8h-8c-4.417968 0-8 3.574219-8 8v64c0 4.421875 3.582032 8 8 8h8v8c0 4.421875 3.582032 8 8 8h80v-16h-72v-8c0-4.425781-3.585937-8-8-8h-8v-48h8c4.414063 0 8-3.578125 8-8v-8h72v-16h-80c-4.417968 0-8 3.574219-8 8zm0 0"/><path d="m248.003906 336.003906h16v16h-16zm0 0"/><path d="m152.003906 336.003906h16v16h-16zm0 0"/><path d="m493.65625 338.347656-48-48c-2.292969-2.289062-5.726562-2.992187-8.71875-1.738281-2.984375 1.234375-4.933594 4.160156-4.933594 7.394531v24h-48v-56c0-4.425781-3.585937-8-8-8h-24v-24c0-4.425781-3.585937-8-8-8h-336c-4.417968 0-7.99999975 3.574219-7.99999975 8v160c0 4.421875 3.58203175 8 7.99999975 8h24v24c0 4.421875 3.582032 8 8 8h336c4.414063 0 8-3.578125 8-8v-56h48v24c0 3.230469 1.949219 6.15625 4.933594 7.390625 2.992188 1.230469 6.425781.550781 8.71875-1.738281l48-48c3.128906-3.125 3.128906-8.183594 0-11.308594zm-461.652344-74.34375v120h-16v-144h320v16h-296c-4.417968 0-8 3.574219-8 8zm16 8h152v17.46875c-9.289062 3.3125-16 12.113282-16 22.53125v16c0 13.230469 10.765625 24 24 24 4.40625 0 8 3.582032 8 8v16c0 4.414063-3.59375 8-8 8-4.410156 0-8-3.585937-8-8v-8h-16v8c0 10.414063 6.710938 19.214844 16 22.527344v17.472656h-152zm400 100.6875v-12.6875c0-4.425781-3.585937-8-8-8h-64c-4.417968 0-8 3.574219-8 8v56h-152v-17.472656c9.285156-3.3125 16-12.113281 16-22.527344v-16c0-13.234375-10.769531-24-24-24-4.410156 0-8-3.585937-8-8v-16c0-4.417968 3.589844-8 8-8 4.40625 0 8 3.582032 8 8v8h16v-8c0-10.417968-6.714844-19.21875-16-22.53125v-17.46875h152v56c0 4.421875 3.582032 8 8 8h64c4.414063 0 8-3.578125 8-8v-12.691406l28.6875 28.691406zm0 0"/><path d="m424.003906 80.003906h-8v-8c0-4.425781-3.585937-8-8-8h-80v16h72v8c0 4.421875 3.582032 8 8 8h8v48h-8c-4.417968 0-8 3.574219-8 8v8h-72v16h80c4.414063 0 8-3.578125 8-8v-8h8c4.414063 0 8-3.578125 8-8v-64c0-4.425781-3.585937-8-8-8zm0 0"/><path d="m152.003906 160.003906h8v8c0 4.421875 3.582032 8 8 8h80v-16h-72v-8c0-4.425781-3.585937-8-8-8h-8v-48h8c4.414063 0 8-3.578125 8-8v-8h72v-16h-80c-4.417968 0-8 3.574219-8 8v8h-8c-4.417968 0-8 3.574219-8 8v64c0 4.421875 3.582032 8 8 8zm0 0"/><path d="m328.003906 112.003906h16v16h-16zm0 0"/><path d="m232.003906 112.003906h16v16h-16zm0 0"/><path d="m50.347656 173.65625c2.285156 2.289062 5.71875 2.984375 8.71875 1.738281 2.984375-1.234375 4.9375-4.160156 4.9375-7.390625v-24h48v56c0 4.421875 3.582032 8 8 8h336c4.414063 0 8-3.578125 8-8v-24h16c4.414063 0 8-3.578125 8-8v-160c0-4.425781-3.585937-7.99999975-8-7.99999975h-336c-4.417968 0-8 3.57421875-8 7.99999975v24h-16c-4.417968 0-8 3.574219-8 8v56h-48v-24c0-3.234375-1.953125-6.160156-4.9375-7.394531-3-1.246094-6.433594-.550781-8.71875 1.738281l-48 48c-3.128906 3.125-3.128906 8.183594 0 11.308594zm397.65625 18.347656h-152v-17.472656c9.285156-3.3125 16-12.113281 16-22.527344v-16c0-13.234375-10.769531-24-24-24-4.410156 0-8-3.585937-8-8v-16c0-4.417968 3.589844-8 8-8 4.40625 0 8 3.582032 8 8v8h16v-8c0-10.417968-6.714844-19.21875-16-22.53125v-17.46875h152zm-296-176h320v144h-8v-120c0-4.425781-3.585937-8-8-8h-304zm-104 75.308594v12.691406c0 4.421875 3.582032 8 8 8h64c4.414063 0 8-3.578125 8-8v-56h152v17.46875c-9.289062 3.3125-16 12.113282-16 22.53125v16c0 13.230469 10.765625 24 24 24 4.40625 0 8 3.582032 8 8v16c0 4.414063-3.59375 8-8 8-4.410156 0-8-3.585937-8-8v-8h-16v8c0 10.414063 6.710938 19.214844 16 22.527344v17.472656h-152v-56c0-4.425781-3.585937-8-8-8h-64c-4.417968 0-8 3.574219-8 8v12.6875l-28.691406-28.6875zm0 0"/></svg>